<?xml version="1.0" encoding="utf-8"?>
<svg xmlns="http://www.w3.org/2000/svg" xmlns:xlink="http://www.w3.org/1999/xlink" x="0px" y="0px" viewBox="0 0 960 960" style="enable-background:new 0 0 960 960;" xml:space="preserve">
	<path d="M300.5,668.4L426,480L300.5,291.6V668.4z M354.5,749.2h251.1L480,560.9L354.5,749.2z M534,480l125.5,188.4V291.6L534,480z
		M605.5,210.8H354.5L480,399.1L605.5,210.8z M210.8,188.3c0-37.1,30.2-67.3,67.3-67.3h403.9c37.1,0,67.3,30.2,67.3,67.3v583.4
		c0,37.1-30.2,67.3-67.3,67.3H278.1c-37.1,0-67.3-30.2-67.3-67.3V188.3z"/>
</svg>
