<?xml version="1.0" encoding="utf-8"?>
<svg xmlns="http://www.w3.org/2000/svg" xmlns:xlink="http://www.w3.org/1999/xlink" x="0px" y="0px" viewBox="0 0 960 960" style="enable-background:new 0 0 960 960;" xml:space="preserve">
	<path d="M231,745.4V214.6c0-12.1,4.1-21.9,12.2-29.3c8.1-7.4,17.6-11.1,28.4-11.1c3.4,0,6.9,0.5,10.6,1.4c3.7,0.9,7.2,2.4,10.6,4.2
		l417.6,266.2c6.2,4.3,10.8,9.3,13.9,14.9c3.1,5.7,4.6,12,4.6,19s-1.5,13.3-4.6,19c-3.1,5.7-7.7,10.6-13.9,14.9L292.8,780.1
		c-3.4,1.9-6.9,3.3-10.7,4.2c-3.7,0.9-7.3,1.4-10.7,1.4c-10.8,0-20.3-3.7-28.4-11.1C235,767.2,231,757.5,231,745.4z M311.8,672.3
		L613.9,480L311.8,287.7L311.8,672.3L311.8,672.3z"/>
</svg>
